<svg width="541" height="541" viewBox="0 0 541 541" fill="none" xmlns="http://www.w3.org/2000/svg">
<path d="M319.589 271.505C327.895 272.584 336.834 271.902 338.744 266.663C342.231 257.107 313.646 243.305 313.646 243.305C313.646 243.305 305.055 214.162 327.835 227.099C374.048 253.343 362.864 279.499 340.832 284.714C333.511 286.448 325.561 285.927 319.431 284.97" fill="#FF948F"/>
<path d="M322.805 252.794C306.081 244.448 291.47 237.46 291.47 237.46L297.021 235.905C294.638 234.805 292.553 232.985 291.147 230.525C287.576 224.279 289.704 216.346 295.898 212.805C296.161 212.654 296.432 212.529 296.7 212.399L296.699 212.347C298.402 211.373 300.445 211.006 302.736 211.136C303.425 211.162 304.637 211.083 305.31 211.217C313.709 212.637 324.285 219.862 334.553 228.497C334.553 228.497 332.39 239.978 322.805 252.794Z" fill="#81D6C8"/>
<path d="M329.467 224.795C328.022 229.197 326.067 233.439 324.035 237.596C321.967 241.829 319.759 246.021 317.217 249.992C316.976 250.367 317.574 250.713 317.813 250.34C320.429 246.253 322.694 241.934 324.813 237.573C326.8 233.483 328.713 229.306 330.132 224.979C330.272 224.556 329.605 224.374 329.467 224.795Z" fill="white"/>
<path d="M230.068 271.505C221.762 272.584 212.824 271.902 210.912 266.663C207.426 257.107 236.012 243.305 236.012 243.305C236.012 243.305 244.603 214.162 221.823 227.099C175.61 253.343 186.794 279.499 208.826 284.714C216.147 286.448 224.097 285.927 230.227 284.97" fill="#FF948F"/>
<path d="M302.271 477.855C302.154 479.456 302.082 480.763 302.065 481.705L302.203 482.42L308.938 488.406C309.285 488.144 314.514 492.191 314.952 492.533C315.39 492.875 315.449 493.706 314.962 493.959C314.788 494.05 314.584 494.052 314.389 494.05C314.265 494.049 314.127 494.042 313.995 494.038L314.054 494.088L313.021 493.991C312.055 493.929 311.002 493.823 309.994 493.709L283.55 488.806C283.55 488.806 283.825 484.819 284.247 478.683" fill="#FF948F"/>
<path d="M283.55 487.728C283.55 487.728 295.453 490.891 304.913 490.468L308.204 487.085C308.204 487.085 316.75 491.603 321.563 498.134C321.563 498.134 311.938 497.103 303 496.072C294.063 495.041 283.55 492.635 283.55 492.635V487.728Z" fill="#542E54"/>
<path d="M249.56 477.855C249.677 479.456 249.75 480.763 249.766 481.705L249.628 482.42L242.893 488.406C242.547 488.144 237.317 492.191 236.879 492.533C236.442 492.875 236.383 493.706 236.869 493.959C237.044 494.05 237.247 494.052 237.442 494.05C237.567 494.049 237.705 494.042 237.837 494.038L237.777 494.088L238.811 493.991C239.777 493.929 240.83 493.823 241.837 493.709L268.28 488.806C268.28 488.806 268.005 484.819 267.583 478.683" fill="#FF948F"/>
<path d="M268.281 487.728C268.281 487.728 256.378 490.891 246.918 490.468L243.628 487.085C243.628 487.085 235.081 491.603 230.269 498.134C230.269 498.134 239.894 497.103 248.831 496.072C257.769 495.041 268.281 492.635 268.281 492.635V487.728Z" fill="#542E54"/>
<path d="M306.202 332.322C306.267 320.34 306.017 306.62 306.017 306.62L291.097 302.575H275.553H275.262H259.718L244.58 306.062L244.012 320.157C244.012 320.729 244.056 321.297 244.126 321.859C242.519 334.019 243.866 387.966 243.866 396.911C243.866 407.131 246.389 480.136 246.389 480.136C259.699 482.246 270.503 480.354 270.503 480.354C270.503 480.354 268.624 424.281 268.624 403.26C268.624 395.767 270 358.573 270.346 340.109L271.024 340.376H275.071C275.156 357.886 278.594 396.636 278.594 402.917C278.594 413.138 279.742 480.138 279.742 480.138C293.052 482.247 305.761 480.355 305.761 480.355C305.761 480.355 306.094 423.938 306.094 402.917C306.094 391.539 306.094 352.041 306.202 332.322Z" fill="#81D6C8"/>
<path d="M305.571 471.463C300.993 472.042 296.366 472.237 291.755 472.236C287.658 472.235 283.513 472.133 279.454 471.542C279.047 471.483 278.87 472.106 279.282 472.165C283.261 472.744 287.312 472.867 291.328 472.88C296.081 472.896 300.851 472.705 305.57 472.108C305.978 472.058 305.983 471.411 305.571 471.463Z" fill="white"/>
<path d="M270.727 201.266C266.704 202.467 255.98 195.927 254.084 192.978C247.24 182.334 249.283 166.982 257.808 157.63C266.333 148.278 281.541 145.627 292.453 152.036C303.365 158.445 308.407 173.514 303.053 184.98C297.949 195.911 285.307 201.728 273.249 202.106" fill="#FFDBB8"/>
<path d="M288.401 160.328C288.404 160.33 288.42 160.334 288.42 160.334V160.366C288.413 160.354 288.407 160.341 288.401 160.328Z" fill="#FFBA9A"/>
<path d="M258.904 163.212C261.128 162.842 278.04 156.794 287.305 164.205C287.241 167.62 284.792 179.768 284.95 179.528C285.279 179.027 285.309 178.809 288.699 177.956C289.029 177.86 289.367 177.78 289.725 177.753C292.767 177.526 295.418 179.805 295.645 182.842C295.872 185.88 293.591 188.527 290.55 188.754C289.721 188.815 288.927 188.678 288.197 188.402L288.067 204.844C288.136 205.392 288.181 205.946 288.177 206.513C288.122 213.494 282.417 219.109 275.435 219.054C268.454 218.999 262.84 213.294 262.895 206.312C262.899 205.78 262.947 205.261 263.014 204.747L263.069 197.721C256.437 195.451 255.464 188.61 256.394 182.548C257.324 176.487 258.833 163.507 258.904 163.212Z" fill="#FF948F"/>
<path d="M291.142 183.771C290.671 183.018 289.956 182.422 289.13 182.095C289.13 182.095 289.294 181.835 289.942 181.649C290.59 181.464 292 181.424 292 181.424C291 180.956 289.674 181.009 288.87 181.763C287.903 182.669 287.537 183.609 287.729 184.694C287.729 184.694 288.181 182.761 288.923 182.391L291.142 183.771Z" fill="#A8425F"/>
<path d="M263.069 197.721C263.069 197.721 266.232 198.868 270.515 198.548L263.011 205.051L263.069 197.721Z" fill="#542E54"/>
<path d="M260.447 169.74C259.795 168.705 262.035 167.518 263.434 167.219C264.198 167.055 265.415 167.098 265.751 167.59C266.119 168.13 265.349 168.503 264.674 168.78C264.857 168.679 265.039 168.58 265.222 168.479C264.703 168.882 264.047 169.019 263.416 169.306C262.83 169.573 262.252 170.032 261.541 170.086C261.062 170.124 260.629 170.029 260.447 169.74Z" fill="#FFDBB8"/>
<path d="M278.048 170.271C277.175 170.233 276.671 169.869 275.934 169.563C275.247 169.279 274.579 169.157 274.001 168.748C274.185 168.846 274.367 168.944 274.551 169.043C273.858 168.788 273.105 168.413 273.463 167.874C273.773 167.406 274.952 167.307 275.696 167.439C277.154 167.698 279.441 168.817 278.854 169.899C278.748 170.095 278.397 170.286 278.048 170.271Z" fill="#FFDBB8"/>
<path d="M273.949 184.381C273.451 186.42 271.228 188.365 267.614 186.56C267.614 186.56 269.538 186.841 271.206 186.285C272.873 185.729 273.949 184.381 273.949 184.381Z" fill="#A8425F"/>
<path d="M231.865 217.167C239.595 210.763 252.815 207.932 262.786 206.732C262.786 206.732 266.595 213.675 275.415 213.72C284.235 213.674 288.044 206.732 288.044 206.732C298.015 207.932 305.249 206.968 314.143 214.591C317.669 216.953 311.89 229.143 311.251 230.696L302.708 270.493L306.017 306.62C306.017 306.62 301.347 309.6 275.57 309.712V309.714C275.517 309.714 275.466 309.714 275.415 309.714C275.364 309.714 275.312 309.714 275.26 309.714V309.712C249.483 309.599 244.264 307.547 244.264 307.547L247.441 269.858L239.818 233.013C239.18 231.459 226.001 229.894 226.004 228.109C226.012 223.545 228.337 219.529 231.865 217.167Z" fill="#81D6C8"/>
<path d="M292.163 208.35C289.345 216.089 280.139 220.071 272.342 218.686C271.884 218.605 271.688 219.305 272.148 219.387C280.359 220.846 289.9 216.681 292.863 208.543C293.024 208.103 292.322 207.913 292.163 208.35Z" fill="white"/>
<path d="M266.124 216.628C262.352 215.064 259.387 212.024 257.911 208.218C257.744 207.786 257.041 207.974 257.21 208.41C258.788 212.48 261.899 215.657 265.93 217.328C266.363 217.508 266.551 216.805 266.124 216.628Z" fill="white"/>
<path d="M306.017 306.317C290.094 308.256 273.839 308.359 257.855 307.175C253.444 306.849 249.041 306.399 244.661 305.77C244.279 305.715 244.115 306.299 244.5 306.354C260.478 308.648 276.84 308.983 292.94 308.068C297.309 307.819 301.672 307.452 306.017 306.923C306.399 306.877 306.403 306.27 306.017 306.317Z" fill="white"/>
<path d="M265.761 183.41H270.486L269.467 173.218H267.614L265.761 183.41Z" fill="#542E54"/>
<path opacity="0.75" d="M275.396 182.946C275.396 180.592 277.304 178.684 279.658 178.684C282.012 178.684 283.921 180.592 283.921 182.946C283.921 185.299 282.012 187.208 279.658 187.208C277.304 187.208 275.396 185.3 275.396 182.946Z" fill="#D376D3"/>
<path opacity="0.75" d="M257.058 177.841C257.326 177.788 257.602 177.757 257.885 177.757C260.239 177.757 262.147 179.665 262.147 182.019C262.147 184.373 260.24 186.281 257.885 186.281C257.246 186.281 256.645 186.131 256.101 185.878C256.123 184.763 256.226 183.644 256.393 182.549C256.594 181.237 256.823 179.601 257.058 177.841Z" fill="#D376D3"/>
<path d="M280.954 173.867C280.954 173.867 279.935 179.426 276.692 179.611C273.45 179.796 273.635 172.754 273.635 172.754C273.635 172.754 274.469 178.314 276.506 178.221C278.546 178.129 280.028 175.905 280.954 173.867Z" fill="#A8425F"/>
<path d="M265.02 173.588C265.02 173.588 264.001 179.148 260.758 179.333C257.515 179.518 258.441 172.662 258.441 172.662C258.441 172.662 258.904 178.128 260.943 178.035C262.981 177.943 264.093 175.627 265.02 173.588Z" fill="#A8425F"/>
<path d="M226.851 252.794C243.576 244.448 258.187 237.46 258.187 237.46L252.635 235.905C255.019 234.805 257.104 232.985 258.51 230.525C262.08 224.279 259.953 216.346 253.758 212.805C253.496 212.654 253.225 212.529 252.957 212.399L252.958 212.347C251.255 211.373 249.212 211.006 246.92 211.136C246.232 211.162 245.019 211.083 244.346 211.217C235.948 212.637 225.371 219.862 215.104 228.497C215.104 228.497 217.267 239.978 226.851 252.794Z" fill="#81D6C8"/>
<path d="M219.524 224.978C220.945 229.304 222.857 233.48 224.843 237.572C226.962 241.933 229.227 246.252 231.844 250.339C232.083 250.712 232.68 250.366 232.44 249.991C229.898 246.02 227.691 241.829 225.621 237.595C223.589 233.438 221.635 229.196 220.189 224.794C220.051 224.375 219.384 224.555 219.524 224.978Z" fill="white"/>
<path d="M270.314 471.463C262.373 472.466 254.045 472.699 246.104 471.543C245.697 471.484 245.521 472.107 245.932 472.166C253.936 473.332 262.308 473.122 270.314 472.11C270.721 472.058 270.727 471.411 270.314 471.463Z" fill="white"/>
<path d="M254.304 166.093C260.426 167.877 269.306 165.208 274.605 161.662C273.597 162.931 272.359 164.488 273.339 165.233C274.555 166.158 280.752 163.855 282.783 162.349C282.021 163.379 279.163 165.892 280.074 166.738C280.985 167.584 283.712 166.62 285.062 165.161C283.501 169.818 282.638 173.572 282.272 178.118C281.921 182.503 283.972 181.105 284.728 180.452C289.62 176.221 293.819 169.968 293.435 163.512C293.322 161.597 292.975 159.636 291.95 158.014C289.794 154.605 285.346 153.591 281.344 153.088C276.286 152.453 271.064 152.166 266.168 153.583C261.272 155.001 256.708 158.391 255.034 163.206" fill="#FFDBB8"/>
<path d="M292.876 194.106C291.271 195.185 290.377 197.23 290.673 199.141C290.969 201.052 292.44 202.73 294.296 203.274C292.547 203.899 291.626 205.814 291.415 207.659C291.205 209.503 292.007 211.685 293.57 212.687C291.824 213.783 290.507 214.514 289.978 217.115C289.45 219.717 290.036 221.921 291.894 223.818C289.548 224.379 285.897 230.874 285.669 233.275C285.493 235.127 291.414 237.105 294.752 236.417C295.935 236.172 297.031 235.69 297.168 234.49C297.723 229.634 295.724 224.776 295.724 224.776C300.632 223.698 302.549 217.55 299.554 213.643C301.349 212.685 302.381 211.13 302.906 209.214C303.431 207.298 302.667 204.067 301.316 203.242C303.447 200.594 303.478 196.472 301.386 193.793C299.295 191.114 295.287 190.144 292.202 191.57" fill="#FFDBB8"/>
<path d="M298.238 199.998C298.238 199.998 298.095 199.1 297.541 198.287C297.591 197.7 297.745 196.265 298.119 195.329C298.119 195.329 297.051 196.754 297.281 197.949C296.793 197.396 296.071 196.959 295.007 197.005C295.007 197.005 297.041 197.963 298.238 199.998Z" fill="#542E54"/>
<path d="M297.287 207.766C297.158 207.04 296.77 206.291 295.838 205.776C295.838 205.776 297.077 207.653 297.038 210.014C297.038 210.014 297.385 209.173 297.334 208.191C297.682 207.715 298.561 206.57 299.367 205.966C299.367 205.966 297.713 206.627 297.287 207.766Z" fill="#542E54"/>
<path d="M295.031 218.839C295.023 218.101 294.763 217.299 293.928 216.638C293.928 216.638 294.842 218.693 294.418 221.016C294.418 221.016 294.897 220.243 295.009 219.266C295.431 218.854 296.485 217.868 297.379 217.405C297.379 217.405 295.638 217.785 295.031 218.839Z" fill="#542E54"/>
<path d="M290.267 230.362C290.721 228.999 288.113 233.492 287.792 235.202L288.752 235.818C288.752 235.818 288.813 234.722 290.267 230.362Z" fill="#542E54"/>
<path d="M293.448 236.727C293.908 234.902 294.321 232.197 293.903 230.363C293.903 230.363 294.963 232.485 294.812 236.425L293.448 236.727Z" fill="#542E54"/>
<path d="M244.366 235.184C242.74 238.536 241.945 242.152 242.031 245.877C242.041 246.321 242.731 246.322 242.721 245.877C242.638 242.274 243.389 238.776 244.962 235.532C245.154 235.134 244.559 234.783 244.366 235.184Z" fill="white"/>
<path d="M246.841 397.495C247.621 399.407 248.402 401.318 249.182 403.23C249.327 403.586 249.914 403.43 249.766 403.069C248.986 401.157 248.206 399.246 247.426 397.334C247.281 396.978 246.694 397.134 246.841 397.495Z" fill="white"/>
<path d="M300.294 401.114C299.56 403.3 298.551 405.336 297.264 407.248C297.045 407.573 297.57 407.877 297.787 407.555C299.102 405.601 300.129 403.506 300.879 401.275C301.004 400.905 300.419 400.746 300.294 401.114Z" fill="white"/>
<path d="M304.002 284.923H245.445L243.875 280.626H305.923L304.002 284.923Z" fill="#C1B5C2"/>
<path d="M248.774 281.658L246.125 269.643C245.849 268.355 244.324 267.59 242.72 267.935C241.115 268.279 240.039 269.602 240.316 270.891L242.307 280.166C242.584 281.453 244.108 282.218 245.712 281.874" stroke="#C1B5C2" stroke-width="1.0717" stroke-miterlimit="10"/>
<path d="M300.883 281.658L303.532 269.643C303.807 268.355 305.333 267.59 306.937 267.935C308.541 268.279 309.618 269.602 309.341 270.891L307.35 280.166C307.073 281.453 305.548 282.218 303.945 281.874" stroke="#C1B5C2" stroke-width="1.0717" stroke-miterlimit="10"/>
<path d="M306.845 282.582H242.528L241.812 280.626H307.985L306.845 282.582Z" fill="#D8CAD9"/>
<path d="M230.226 284.97C234.605 284.286 238.057 283.378 239.69 282.91C246.282 281.056 246.951 278.733 243.652 278.865C247.499 278.431 246.187 275.432 243.79 275.642C246.712 275.125 246.021 272.015 243.274 272.376C245.68 271.001 245.079 267.478 240.688 269.781C240.782 267.392 241.107 265.926 239.923 266.103C238.898 266.256 237.811 268.302 236.054 270.411C234.178 270.856 228.075 271.677 226.001 271.947" fill="#C4ECE5"/>
<path d="M305.383 235.532C306.955 238.776 307.707 242.274 307.624 245.877C307.614 246.322 308.303 246.321 308.314 245.877C308.401 242.152 307.604 238.537 305.979 235.184C305.784 234.784 305.189 235.134 305.383 235.532Z" fill="white"/>
<path d="M319.431 284.97C315.052 284.286 311.6 283.378 309.966 282.91C303.376 281.056 302.706 278.733 306.006 278.865C302.159 278.431 303.47 275.432 305.868 275.642C302.946 275.125 303.637 272.015 306.384 272.376C303.977 271.001 304.579 267.478 308.97 269.781C308.876 267.392 308.551 265.926 309.736 266.103C310.76 266.256 311.848 268.302 313.605 270.411C315.481 270.856 321.584 271.677 323.657 271.947" fill="#C4ECE5"/>
<path d="M255.833 279.101H255.309C254.856 279.101 254.489 279.468 254.489 279.921V280.747C254.489 281.2 254.856 281.567 255.309 281.567H255.833C256.286 281.567 256.653 281.2 256.653 280.747V279.921C256.653 279.468 256.285 279.101 255.833 279.101Z" fill="#C1B5C2"/>
<path d="M261.109 279.101H260.586C260.132 279.101 259.766 279.468 259.766 279.921V280.747C259.766 281.2 260.134 281.567 260.586 281.567H261.109C261.563 281.567 261.93 281.2 261.93 280.747V279.921C261.93 279.468 261.562 279.101 261.109 279.101Z" fill="#C1B5C2"/>
<path d="M274.611 279.101H267.273C266.592 279.101 266.041 279.653 266.041 280.333C266.041 281.014 266.592 281.566 267.273 281.566H274.611C275.292 281.566 275.845 281.014 275.845 280.333C275.845 279.653 275.293 279.101 274.611 279.101Z" fill="#C1B5C2"/>
<path d="M284.158 279.101H281.039C280.358 279.101 279.807 279.653 279.807 280.333C279.807 281.014 280.358 281.566 281.039 281.566H284.158C284.839 281.566 285.391 281.014 285.391 280.333C285.392 279.653 284.84 279.101 284.158 279.101Z" fill="#C1B5C2"/>
<path d="M294.299 279.101H291.179C290.499 279.101 289.946 279.653 289.946 280.333C289.946 281.014 290.498 281.566 291.179 281.566H294.299C294.979 281.566 295.531 281.014 295.531 280.333C295.532 279.653 294.98 279.101 294.299 279.101Z" fill="#C1B5C2"/>
<path d="M298.657 288.446H250.105L250.175 280.477H298.657V288.446Z" fill="white"/>
<path d="M494.247 229.619C495.594 229.131 497.244 228.343 497.853 225.381C498.8 220.782 486.312 198.961 486.312 198.961L499.476 182.19C499.476 182.19 514.748 202.503 516.067 224.929C516.788 237.192 507.827 245.36 498.259 245.668" fill="#FF948F"/>
<path d="M464.986 108.276C468.902 108.043 472.189 111.727 472.859 115.593C473.679 120.324 470.781 125.931 469.055 130.234C467.871 133.184 467.456 134.608 463.221 140.766C464.887 142.497 468.282 145.094 467.454 146.202C466.625 147.31 463.845 145.553 462.41 144.449C464.025 147.769 462.909 151.064 460.584 151.056C458.259 151.047 453.369 147.249 451.617 145.72C447.509 142.137 444.527 137.412 440.445 133.798C438.072 131.697 434.344 130.363 432.37 127.885L432.376 128.072C428.695 125.426 424.735 122.573 422.577 118.586C422.018 117.555 421.568 116.37 421.841 115.23C422.115 114.09 423.392 113.146 424.467 113.612C422.917 112.676 421.533 111.372 420.814 109.712C420.094 108.051 420.132 106.004 421.187 104.532C422.242 103.062 424.393 102.381 425.988 103.239C424.958 100.718 424.694 97.4297 427.561 95.9193C428.255 95.5536 429.05 95.3945 429.833 95.4129C432.537 95.4778 434.633 97.0922 436.641 98.6611C436.848 96.7686 437.061 94.8513 437.753 93.0769C438.443 91.3024 439.68 89.6588 441.424 88.896C444.537 87.5338 448.117 89.3061 450.765 91.4344C453.518 93.6471 455.916 96.3012 457.84 99.2637C458.236 97.8084 460.327 97.4395 461.589 98.265C462.851 99.0906 463.432 100.622 463.825 102.078C464.376 104.122 464.711 106.225 464.822 108.34" fill="#542E54"/>
<path d="M460.554 109.115C460.557 109.116 460.573 109.121 460.573 109.121L460.574 109.152C460.567 109.141 460.561 109.127 460.554 109.115Z" fill="#FFBA9A"/>
<path d="M430.949 112.99C433.176 112.544 447.275 109.654 456.849 116.813C456.896 120.252 455.574 124.128 455.623 127.569C455.63 128.1 455.836 128.821 456.364 128.761C456.652 128.729 456.841 128.456 456.993 128.209C457.307 127.694 457.622 127.18 457.937 126.665C457.211 128.484 456.38 131.957 457.735 132.423C458.927 132.833 460.971 129.22 461.435 126.856C461.765 126.748 462.102 126.656 462.461 126.618C465.517 126.289 468.259 128.495 468.588 131.546C468.918 134.597 466.708 137.338 463.653 137.667C462.82 137.757 462.017 137.644 461.273 137.391L461.683 153.951C461.77 154.5 461.833 155.057 461.848 155.627C462.022 162.659 456.462 168.5 449.432 168.674C442.4 168.848 436.559 163.289 436.385 156.258C436.372 155.722 436.402 155.198 436.454 154.678L436.279 147.602C429.527 145.534 428.321 138.679 429.058 132.545C429.794 126.408 430.886 113.29 430.949 112.99Z" fill="#FF948F"/>
<path d="M464.085 132.628C463.587 131.886 462.846 131.308 462.004 131.006C462.004 131.006 462.16 130.739 462.807 130.53C463.454 130.323 464.873 130.236 464.873 130.236C463.851 129.798 462.517 129.894 461.732 130.68C460.788 131.623 460.45 132.582 460.68 133.669C460.68 133.669 461.072 131.707 461.806 131.31L464.085 132.628Z" fill="#A8425F"/>
<path d="M436.279 147.6C436.279 147.6 439.501 148.65 443.804 148.186L436.463 154.981L436.279 147.6Z" fill="#542E54"/>
<path d="M432.72 118.956C432.176 117.207 434.548 115.804 435.983 115.62C436.765 115.521 437.981 115.832 438.266 116.671C438.577 117.59 437.766 118.017 437.059 118.312C437.253 118.193 437.446 118.073 437.641 117.954C437.077 118.479 436.406 118.56 435.743 118.881C435.127 119.181 434.499 119.781 433.781 119.721C433.295 119.682 432.872 119.444 432.72 118.956Z" fill="#542E54"/>
<path d="M450.82 119.986C449.947 120.135 449.382 119.688 448.597 119.389C447.865 119.111 447.182 119.078 446.535 118.58C446.734 118.689 446.934 118.799 447.134 118.909C446.401 118.676 445.587 118.272 445.848 117.347C446.074 116.543 447.227 116.108 447.988 116.136C449.48 116.191 451.947 117.387 451.555 119.215C451.484 119.544 451.168 119.926 450.82 119.986Z" fill="#542E54"/>
<path d="M446.794 133.81C446.36 135.879 444.185 137.912 440.487 136.211C440.487 136.211 442.476 136.549 444.136 135.935C445.797 135.32 446.794 133.81 446.794 133.81Z" fill="#A8425F"/>
<path d="M438.518 133.1L443.275 132.944L441.913 122.717L440.048 122.778L438.518 133.1Z" fill="#542E54"/>
<path opacity="0.75" d="M448.204 132.317C448.126 129.947 449.985 127.963 452.354 127.885C454.724 127.807 456.708 129.666 456.786 132.035C456.864 134.405 455.005 136.389 452.635 136.467C450.266 136.545 448.281 134.686 448.204 132.317Z" fill="#D376D3"/>
<path opacity="0.75" d="M429.572 127.781C429.84 127.719 430.117 127.679 430.403 127.669C432.772 127.592 434.757 129.45 434.834 131.82C434.912 134.19 433.053 136.174 430.684 136.252C430.04 136.272 429.43 136.14 428.874 135.905C428.859 134.781 428.926 133.651 429.059 132.543C429.217 131.215 429.393 129.561 429.572 127.781Z" fill="#D376D3"/>
<path d="M446.237 129.577C446.237 129.577 446.452 123.428 449.666 122.638C452.879 121.847 453.672 128.441 453.672 128.441C453.672 128.441 452.075 123.624 450.052 124.096C448.029 124.566 446.869 127.221 446.237 129.577Z" fill="#A8425F"/>
<path d="M430.975 128.455C430.975 128.455 431.349 122.657 434.608 122.963C437.795 123.262 437.14 130.076 437.14 130.076C437.14 130.076 436.445 124.618 434.459 124.383C432.417 124.141 431.85 126.186 430.975 128.455Z" fill="#A8425F"/>
<path d="M352.578 160.189C353.347 155.333 354.45 147.73 354.585 147.163C353.969 143.735 353.953 140.131 354.312 137.44C354.353 137.136 354.66 136.485 354.85 136.236C355.04 135.988 355.379 135.82 355.662 135.924C355.942 136.026 356.042 136.345 356.158 136.617C356.695 137.875 356.67 138.616 357.427 141.876C356.817 138 356.846 135.599 357.077 133.76C357.189 132.861 357.463 132.347 357.834 132.18C358.247 131.994 358.601 132.303 358.839 132.662C359.542 133.721 359.68 134.985 359.911 136.249C360.351 138.647 359.987 137.15 360.428 139.55C360.273 137.041 360.235 131.9 361.223 131.473C362.212 131.045 362.902 133.388 363.054 134.14C363.544 136.576 363.222 135.432 363.841 137.419C363.557 133.744 363.588 132.042 364.656 132.023C365.724 132.005 367.1 139.112 367.1 142.332C368.827 141.004 370.892 139.694 371.038 140.898C371.178 142.064 370.812 146.059 369.354 148.643C369.11 150.437 368.824 152.769 368.585 155.364" fill="#FF948F"/>
<path d="M368.584 155.362C367.634 165.695 369.511 184.909 375.707 183.791C384.919 182.128 398.555 169.902 398.555 169.902L425.658 176.284C425.658 176.284 390.08 209.174 367.562 203.688C351.077 199.671 350.27 174.757 352.579 160.189" fill="#FF948F"/>
<path d="M399.473 198.022C416.794 190.996 431.902 185.16 431.902 185.16L426.488 183.18C428.949 182.268 431.168 180.615 432.761 178.271C436.805 172.32 435.299 164.245 429.397 160.237C429.146 160.067 428.887 159.921 428.629 159.77L428.634 159.718C427.013 158.616 425.003 158.092 422.708 158.043C422.02 158.016 420.817 157.843 420.135 157.924C411.652 158.689 399.958 165.452 389.053 173.265C389.053 173.265 390.909 184.503 399.473 198.022Z" fill="#81D6C8"/>
<path d="M393.769 169.929C394.856 174.352 396.595 178.624 398.377 182.805C400.285 187.28 402.351 191.698 404.653 195.985C404.863 196.376 405.459 196.028 405.249 195.636C403.013 191.472 401 187.183 399.138 182.84C397.316 178.592 395.54 174.244 394.436 169.746C394.329 169.316 393.663 169.497 393.769 169.929Z" fill="white"/>
<path d="M417.947 438.904C418.064 440.504 418.136 441.811 418.152 442.753L418.015 443.469L411.28 449.454C410.933 449.192 405.704 453.239 405.266 453.581C404.828 453.923 404.769 454.754 405.256 455.007C405.43 455.098 405.634 455.1 405.828 455.098C405.954 455.097 406.091 455.09 406.223 455.086L406.164 455.136L407.197 455.039C408.163 454.977 409.216 454.871 410.224 454.757L438.832 449.854C438.832 449.854 438.557 445.867 438.135 439.731" fill="#FF948F"/>
<path d="M438.832 448.776C438.832 448.776 424.765 451.939 415.305 451.516L412.014 448.133C412.014 448.133 403.468 452.651 398.655 459.182C398.655 459.182 408.28 458.151 417.218 457.12C426.155 456.089 438.832 453.683 438.832 453.683V448.776Z" fill="#542E54"/>
<path d="M479.313 438.904C479.197 440.504 479.124 441.811 479.108 442.753L479.245 443.469L485.981 449.454C486.327 449.192 491.556 453.239 491.995 453.581C492.433 453.923 492.491 454.754 492.004 455.007C491.83 455.098 491.627 455.1 491.432 455.098C491.306 455.097 491.169 455.09 491.037 455.086L491.096 455.136L490.063 455.039C489.097 454.977 488.044 454.871 487.037 454.757L458.429 449.854C458.429 449.854 458.704 445.867 459.125 439.731" fill="#FF948F"/>
<path d="M458.428 448.776C458.428 448.776 472.495 451.939 481.955 451.516L485.245 448.133C485.245 448.133 493.792 452.651 498.605 459.182C498.605 459.182 488.979 458.151 480.042 457.12C471.104 456.089 458.428 453.683 458.428 453.683V448.776Z" fill="#542E54"/>
<path d="M415.256 284.354C415.191 272.372 415.441 256.128 415.441 256.128L433.419 252.857H448.963H449.254H464.798L483.039 257.426L483.607 270.439C483.607 271.011 483.562 271.579 483.493 272.141C485.1 284.301 483.895 338.248 483.895 347.193C483.895 357.413 482.483 441.184 482.483 441.184C469.174 443.294 456.206 441.402 456.206 441.402C456.206 441.402 455.891 374.564 455.891 353.542C455.891 346.05 453.434 308.855 453.088 290.392L453.491 290.658H448.363C448.277 308.168 444.655 360.572 444.655 366.853C444.655 377.074 442.64 441.186 442.64 441.186C429.33 443.295 414.457 441.403 414.457 441.403C414.457 441.403 415.442 369.481 415.442 348.459C415.441 337.081 415.364 304.072 415.256 284.354Z" fill="#81D6C8"/>
<path d="M414.647 433.157C419.716 433.798 424.854 433.943 429.959 433.93C434.331 433.918 438.766 433.844 443.099 433.214C443.509 433.155 443.335 432.532 442.927 432.591C438.521 433.232 434 433.282 429.556 433.285C424.584 433.286 419.583 433.136 414.646 432.512C414.235 432.459 414.239 433.106 414.647 433.157Z" fill="white"/>
<path d="M492.652 166.367C484.921 159.963 471.702 157.132 461.731 155.932C461.731 155.932 457.922 162.876 449.102 162.921C440.28 162.876 436.473 155.932 436.473 155.932C426.502 157.132 419.268 156.168 410.374 163.791C406.848 166.153 412.627 178.343 413.266 179.897L414.359 195.896L415.441 257.57C415.441 257.57 423.17 258.8 448.947 258.912V258.914C449 258.914 449.051 258.914 449.102 258.914C449.153 258.914 449.205 258.914 449.257 258.914V258.912C475.034 258.799 483.355 257.829 483.355 257.829L482.14 195.076L484.699 182.212C485.337 180.658 496.593 185.777 496.59 183.993C496.582 179.43 496.179 168.729 492.652 166.367Z" fill="#81D6C8"/>
<path d="M431.652 158.826C434.615 166.963 444.156 171.128 452.367 169.669C452.827 169.587 452.632 168.887 452.174 168.968C444.377 170.353 435.171 166.373 432.353 158.632C432.195 158.196 431.492 158.384 431.652 158.826Z" fill="white"/>
<path d="M458.585 167.61C462.616 165.939 465.727 162.762 467.305 158.693C467.474 158.257 466.772 158.067 466.604 158.5C465.128 162.307 462.165 165.346 458.392 166.91C457.967 167.087 458.154 167.79 458.585 167.61Z" fill="white"/>
<path d="M415.441 257.873C433.668 260.23 452.193 260.686 470.51 259.147C474.726 258.793 478.931 258.32 483.119 257.718C483.503 257.663 483.339 257.079 482.957 257.134C466.074 259.563 448.856 259.96 431.847 258.859C426.362 258.504 420.891 257.972 415.44 257.267C415.055 257.217 415.059 257.824 415.441 257.873Z" fill="white"/>
<path d="M488.676 212.138C477.503 197.153 468.528 183.347 468.528 183.347L474.185 184.459C472.552 182.404 471.51 179.839 471.363 177.011C470.988 169.825 476.46 163.7 483.585 163.329C483.888 163.314 484.185 163.322 484.484 163.328L484.507 163.28C486.465 163.179 488.455 163.77 490.443 164.918C491.045 165.252 492.164 165.728 492.704 166.15C499.564 171.199 505.752 182.414 511.031 194.747C511.031 194.747 503.006 205.011 488.676 212.138Z" fill="#81D6C8"/>
<path d="M508.117 188.784C504.712 192.195 500.87 195.196 497.028 198.094C493.112 201.047 489.1 203.92 484.875 206.419C484.493 206.645 484.839 207.241 485.223 207.015C489.564 204.447 493.683 201.488 497.7 198.445C501.476 195.584 505.252 192.631 508.605 189.273C508.919 188.957 508.431 188.469 508.117 188.784Z" fill="white"/>
<path d="M456.396 433.157C461.156 433.759 465.971 433.944 470.767 433.928C474.825 433.915 478.922 433.799 482.942 433.213C483.352 433.154 483.178 432.53 482.77 432.59C478.669 433.186 474.479 433.282 470.34 433.282C465.686 433.284 461.016 433.094 456.396 432.51C455.984 432.459 455.988 433.106 456.396 433.157Z" fill="white"/>
<path d="M480.336 347.616C479.556 349.528 478.776 351.439 477.996 353.351C477.849 353.712 478.435 353.869 478.58 353.512C479.36 351.6 480.14 349.689 480.92 347.777C481.069 347.417 480.482 347.259 480.336 347.616Z" fill="white"/>
<path d="M423.637 351.557C424.387 353.789 425.414 355.883 426.728 357.837C426.945 358.159 427.47 357.856 427.252 357.531C425.965 355.618 424.956 353.582 424.221 351.396C424.098 351.028 423.512 351.186 423.637 351.557Z" fill="white"/>
<path d="M481.712 196.984C482.005 202.39 482.3 207.798 482.593 213.205C482.617 213.646 483.307 213.65 483.283 213.205C482.99 207.798 482.696 202.39 482.402 196.984C482.377 196.542 481.688 196.54 481.712 196.984Z" fill="white"/>
<path d="M428.786 250.718H471.344L473.508 190.846H426.622L428.786 250.718Z" fill="#A8425F"/>
<path d="M467.494 239.466C462.982 237.733 459.881 236.277 459.363 236.031C455.942 235.921 452.474 235.201 449.961 234.306C449.677 234.205 449.113 233.776 448.914 233.543C448.713 233.309 448.622 232.949 448.779 232.698C448.934 232.45 449.262 232.419 449.546 232.364C450.865 232.105 451.573 232.282 454.862 232.219C451.012 232.013 448.709 231.495 446.989 230.897C446.147 230.604 445.709 230.235 445.624 229.846C445.53 229.411 445.899 229.134 446.293 228.977C447.455 228.517 448.698 228.644 449.96 228.68C452.356 228.748 450.843 228.791 453.238 228.858C450.795 228.493 445.845 227.48 445.636 226.442C445.427 225.404 447.82 225.219 448.575 225.227C451.018 225.254 449.852 225.329 451.888 225.139C448.297 224.662 446.666 224.283 446.867 223.252C447.069 222.222 454.182 222.351 457.276 223.01C456.353 221.079 455.515 218.826 456.703 218.932C457.853 219.035 461.029 221.677 463.215 223.605C464.89 224.207 467.073 224.959 469.519 225.718" fill="#FF948F"/>
<path d="M498.259 245.668C487.621 246.628 475.953 242.714 467.494 239.466L469.518 225.721C477.272 228.13 488.99 231.522 494.246 229.619" fill="#FF948F"/>
<path d="M444.565 195.174H455.566V188.277C455.566 187.006 454.537 185.977 453.266 185.977H450.834H446.864C445.594 185.977 444.565 187.006 444.565 188.277V195.174Z" stroke="#C1B5C2" stroke-width="1.153" stroke-miterlimit="10"/>
<path d="M441.048 198.06H459.082L460.164 189.404H439.966L441.048 198.06Z" fill="#D8CAD9"/>
<path d="M411.909 186.578C412.78 189.293 413.652 192.007 414.523 194.722C414.642 195.092 415.227 194.934 415.107 194.561C414.236 191.846 413.364 189.131 412.493 186.417C412.375 186.047 411.79 186.205 411.909 186.578Z" fill="white"/>
<path d="M141.178 113.085C138.876 102.148 131.34 95.0774 116.855 94.9097C112.72 94.8621 106.909 96.6928 101.689 100.301C101.8 98.7216 101.262 97.0705 99.9822 96.2308C99.7366 96.0696 99.4477 95.9387 99.1621 95.995C98.9046 96.0458 98.6979 96.2417 98.5345 96.4516C97.2913 98.041 97.9481 100.217 98.2359 102.335C98.1396 102.232 98.0433 102.128 97.9481 102.026C97.3638 101.402 96.6583 100.787 95.8155 100.757C94.9726 100.727 94.0972 101.614 94.4327 102.409C94.5863 102.773 94.9325 103.005 95.2734 103.191C95.9074 103.538 96.5869 103.794 97.287 103.957C92.1962 109.027 88.6007 116.176 89.4468 125.306C90.8891 140.875 102.916 146.213 110.365 148.288L127.245 140.624C137.171 136.028 143.482 124.023 141.178 113.085Z" fill="#A8425F"/>
<path d="M23.4438 201.612C23.7219 207.166 24.435 212.86 26.8175 218.596C35.5168 239.539 63.1727 246.387 81.6847 196.482C90.8103 171.883 63.3826 185.062 63.3826 185.062C63.3826 185.062 54.3349 215.54 44.3275 213.63C39.9584 212.796 37.5618 206.514 36.6994 199.989" fill="#FF948F"/>
<path d="M36.7882 200.08C36.5674 198.413 36.5144 197.179 36.4603 195.472L33.6179 192.064H34.8936V178.403H24.3441L23.4871 178.99C23.2329 180.083 23.0857 182.209 22.9916 183.813C22.7676 187.615 22.7222 191.874 22.7222 191.874C22.7222 195.12 23.4439 203.055 23.4439 203.055" fill="#C4ECE5"/>
<path d="M158.135 268.18C154.237 272.422 151.235 274.823 151.235 274.823L151.16 274.773C150.108 277.229 148.835 279.492 147.606 281.194C147.415 281.458 146.798 281.915 146.495 282.052C146.192 282.19 145.79 282.176 145.577 281.936C145.366 281.7 145.433 281.35 145.461 281.038C145.591 279.588 145.988 278.905 146.918 275.468C145.539 279.409 144.304 281.646 143.162 283.253C142.602 284.04 142.088 284.384 141.657 284.354C141.176 284.32 141 283.853 140.957 283.396C140.83 282.049 141.338 280.795 141.757 279.495C142.553 277.024 142.26 277.825 143.056 275.355C141.938 277.784 139.266 283.409 138.124 283.313C136.982 283.217 137.466 280.657 137.75 279.892C138.788 277.09 138.686 276.645 139.724 273.843C138.141 277.432 136.192 281.59 135.181 281.069C134.17 280.548 136.457 273.193 138.079 270.175C135.791 270.55 133.195 270.74 133.666 269.538C134.207 268.154 139.579 265.602 142.175 264.284C146.094 257.183 158.318 243.211 156.228 224.763C153.888 204.106 143.65 190.188 143.65 190.188L161.582 177.618C168.581 189.659 177.269 211.996 175.465 232.913C174.147 248.203 164.822 260.902 158.135 268.18Z" fill="#FF948F"/>
<path d="M104.857 109.115C104.854 109.116 104.838 109.121 104.838 109.121L104.836 109.152C104.844 109.141 104.849 109.127 104.857 109.115Z" fill="#FFBA9A"/>
<path d="M134.46 112.99C132.233 112.544 118.133 109.654 108.56 116.813C108.513 120.252 109.835 124.128 109.786 127.569C109.779 128.1 109.573 128.821 109.045 128.761C108.757 128.729 108.568 128.456 108.416 128.209C108.101 127.694 107.787 127.18 107.472 126.665C108.198 128.484 109.029 131.957 107.674 132.423C106.482 132.833 104.438 129.22 103.974 126.856C103.644 126.748 103.307 126.656 102.948 126.618C99.8923 126.289 97.1495 128.495 96.8205 131.546C96.4916 134.597 98.701 137.338 101.756 137.667C102.589 137.757 103.392 137.644 104.136 137.391L103.726 153.951C103.639 154.5 103.575 155.057 103.561 155.627C103.387 162.659 108.947 168.5 115.977 168.674C123.009 168.848 128.85 163.289 129.024 156.258C129.037 155.722 129.007 155.198 128.955 154.678L129.13 147.602C135.882 145.534 137.088 138.679 136.351 132.545C135.615 126.408 134.523 113.29 134.46 112.99Z" fill="#FF948F"/>
<path d="M101.324 132.628C101.822 131.886 102.563 131.308 103.405 131.006C103.405 131.006 103.249 130.739 102.602 130.53C101.955 130.323 100.536 130.236 100.536 130.236C101.558 129.798 102.892 129.894 103.677 130.68C104.62 131.623 104.958 132.582 104.729 133.669C104.729 133.669 104.337 131.707 103.603 131.31L101.324 132.628Z" fill="#A8425F"/>
<path d="M129.131 147.6C129.131 147.6 125.909 148.65 121.606 148.186L128.947 154.981L129.131 147.6Z" fill="#542E54"/>
<path d="M132.593 118.063C133.257 116.356 130.989 114.793 129.571 114.509C128.797 114.354 127.563 114.582 127.22 115.398C126.845 116.293 127.626 116.776 128.309 117.12C128.124 116.988 127.939 116.855 127.754 116.722C128.28 117.284 128.945 117.412 129.583 117.779C130.178 118.121 130.761 118.762 131.483 118.754C131.969 118.747 132.407 118.539 132.593 118.063Z" fill="#A8425F"/>
<path d="M114.707 119.029C115.588 119.125 116.125 118.643 116.89 118.298C117.604 117.976 118.284 117.902 118.9 117.366C118.707 117.487 118.515 117.609 118.322 117.73C119.04 117.453 119.827 117.002 119.511 116.094C119.238 115.305 118.06 114.941 117.302 115.014C115.816 115.158 113.426 116.502 113.927 118.303C114.018 118.627 114.356 118.99 114.707 119.029Z" fill="#A8425F"/>
<path d="M118.443 134.782C119.81 136.471 122.407 137.078 125.045 136.183C125.045 136.183 123.462 136.154 121.726 135.803C119.991 135.451 118.443 134.782 118.443 134.782Z" fill="#A8425F"/>
<path d="M126.892 133.1L122.134 132.944L123.497 122.717L125.362 122.778L126.892 133.1Z" fill="#542E54"/>
<path opacity="0.75" d="M117.206 132.317C117.284 129.947 115.425 127.963 113.055 127.885C110.686 127.807 108.701 129.666 108.623 132.035C108.546 134.405 110.404 136.389 112.774 136.467C115.144 136.545 117.128 134.686 117.206 132.317Z" fill="#D376D3"/>
<path opacity="0.75" d="M135.839 127.781C135.571 127.719 135.294 127.679 135.008 127.669C132.638 127.592 130.654 129.45 130.576 131.82C130.498 134.19 132.357 136.174 134.727 136.252C135.37 136.272 135.981 136.14 136.537 135.905C136.552 134.781 136.485 133.651 136.352 132.543C136.193 131.215 136.017 129.561 135.839 127.781Z" fill="#D376D3"/>
<path d="M79.7489 207.772C91.1131 192.896 101.176 180.172 101.176 180.172L95.4974 181.22C97.1561 179.18 98.2295 176.625 98.4102 173.793C98.8689 166.602 93.46 160.403 86.3285 159.948C86.0256 159.928 85.7269 159.935 85.4283 159.936L85.4056 159.888C83.445 159.763 81.4455 160.333 79.4416 161.459C78.8346 161.785 77.7082 162.249 77.1618 162.666C70.2338 167.643 63.9052 178.803 58.4746 191.092C58.4757 191.094 65.4806 200.469 79.7489 207.772Z" fill="#81D6C8"/>
<path d="M60.9168 185.998C64.1769 189.341 67.8286 192.315 71.5107 195.176C75.2598 198.09 79.1139 200.908 83.1746 203.375C83.5555 203.606 83.9039 203.009 83.523 202.779C79.3941 200.271 75.4762 197.404 71.6708 194.433C68.1034 191.648 64.5685 188.754 61.4048 185.51C61.0942 185.191 60.6052 185.68 60.9168 185.998Z" fill="white"/>
<path d="M84.8864 438.903C85.0033 440.504 85.0758 441.811 85.092 442.753L84.9546 443.468L78.2181 449.454C77.8718 449.192 72.6425 453.239 72.2043 453.581C71.7661 453.923 71.7077 454.754 72.1946 455.007C72.3688 455.098 72.5722 455.1 72.7669 455.098C72.8914 455.097 73.0299 455.09 73.1619 455.086L73.1024 455.136L74.1357 455.039C75.1019 454.977 76.1547 454.871 77.162 454.757L105.769 449.854C105.769 449.854 105.494 445.867 105.072 439.731" fill="#FF948F"/>
<path d="M105.772 448.776C105.772 448.776 91.705 451.939 82.245 451.516L78.9547 448.133C78.9547 448.133 70.408 452.651 65.5952 459.182C65.5952 459.182 75.2207 458.151 84.158 457.12C93.0953 456.089 105.772 453.683 105.772 453.683V448.776Z" fill="#542E54"/>
<path d="M146.253 438.903C146.136 440.504 146.063 441.811 146.047 442.753L146.185 443.468L152.92 449.454C153.266 449.192 158.496 453.239 158.934 453.581C159.372 453.923 159.431 454.754 158.944 455.007C158.769 455.098 158.566 455.1 158.371 455.098C158.246 455.097 158.108 455.09 157.976 455.086L158.036 455.136L157.003 455.039C156.036 454.977 154.983 454.871 153.976 454.757L125.369 449.854C125.369 449.854 125.644 445.867 126.066 439.731" fill="#FF948F"/>
<path d="M125.368 448.776C125.368 448.776 139.435 451.939 148.895 451.516L152.186 448.133C152.186 448.133 160.732 452.651 165.545 459.182C165.545 459.182 155.92 458.151 146.982 457.12C138.045 456.089 125.368 453.683 125.368 453.683V448.776Z" fill="#542E54"/>
<path d="M82.1966 284.354C82.1317 272.372 82.3816 256.128 82.3816 256.128L100.36 252.857H115.904H116.195H131.739L149.98 257.426L150.548 270.439C150.548 271.011 150.503 271.579 150.434 272.141C152.041 284.301 150.836 338.248 150.836 347.193C150.836 357.413 149.424 441.184 149.424 441.184C136.115 443.294 123.147 441.402 123.147 441.402C123.147 441.402 122.832 374.563 122.832 353.542C122.832 346.049 120.375 308.855 120.029 290.391L120.432 290.658H115.304C115.218 308.168 111.596 360.572 111.596 366.853C111.596 377.074 109.581 441.185 109.581 441.185C96.2712 443.295 81.397 441.403 81.397 441.403C81.397 441.403 82.3816 369.481 82.3816 348.459C82.3816 337.081 82.3037 304.072 82.1966 284.354Z" fill="#81D6C8"/>
<path d="M81.5875 433.157C86.6567 433.798 91.7951 433.943 96.8999 433.93C101.272 433.918 105.706 433.844 110.04 433.214C110.45 433.155 110.276 432.532 109.868 432.591C105.462 433.232 100.941 433.282 96.4964 433.285C91.5246 433.286 86.5236 433.136 81.5864 432.512C81.1752 432.459 81.1796 433.106 81.5875 433.157Z" fill="white"/>
<path d="M159.593 166.367C151.862 159.963 138.643 157.132 128.671 155.932C128.671 155.932 124.863 162.876 116.042 162.921C107.221 162.876 103.413 155.932 103.413 155.932C93.4425 157.132 86.2083 156.168 77.3143 163.791C73.788 166.153 79.567 178.343 80.2064 179.897L81.2993 195.896L82.3813 257.57C82.3813 257.57 90.11 258.8 115.888 258.912V258.914C115.941 258.914 115.991 258.914 116.042 258.914C116.093 258.914 116.145 258.914 116.197 258.914V258.912C141.975 258.799 150.295 257.829 150.295 257.829L149.08 195.076L151.64 182.212C152.278 180.658 163.535 185.777 163.531 183.993C163.522 179.43 163.119 168.729 159.593 166.367Z" fill="#81D6C8"/>
<path d="M98.5932 158.826C101.556 166.963 111.097 171.128 119.308 169.669C119.768 169.587 119.573 168.887 119.114 168.968C111.317 170.353 102.112 166.373 99.2932 158.632C99.1353 158.196 98.432 158.384 98.5932 158.826Z" fill="white"/>
<path d="M125.526 167.61C129.557 165.939 132.667 162.762 134.246 158.693C134.415 158.256 133.713 158.067 133.545 158.5C132.069 162.306 129.105 165.346 125.333 166.91C124.907 167.087 125.093 167.79 125.526 167.61Z" fill="white"/>
<path d="M82.3815 257.873C100.609 260.23 119.134 260.686 137.451 259.147C141.666 258.793 145.872 258.32 150.059 257.718C150.445 257.663 150.28 257.079 149.898 257.134C133.015 259.563 115.797 259.96 98.7879 258.859C93.3032 258.504 87.8315 257.972 82.3804 257.267C81.9952 257.217 81.9995 257.824 82.3815 257.873Z" fill="white"/>
<path d="M150.803 210.863C142.012 193.957 135.655 179.485 135.655 179.485L137.943 181.917C136.398 179.795 135.465 177.189 135.435 174.357C135.361 167.162 141.084 161.271 148.218 161.196C148.521 161.193 148.819 161.215 149.116 161.233L149.141 161.186C151.103 161.166 153.065 161.841 155.003 163.071C155.592 163.428 156.689 163.951 157.212 164.396C163.854 169.728 169.982 181.955 174.742 194.498C174.742 194.498 165.418 204.341 150.803 210.863Z" fill="#81D6C8"/>
<path d="M171.654 187.664C168.316 190.743 164.668 193.493 160.968 196.119C157.208 198.788 153.342 201.349 149.276 203.533C148.884 203.743 149.233 204.339 149.625 204.129C153.815 201.878 157.796 199.229 161.663 196.468C165.288 193.881 168.865 191.174 172.141 188.152C172.469 187.85 171.98 187.363 171.654 187.664Z" fill="white"/>
<path d="M123.336 433.157C128.097 433.759 132.912 433.944 137.707 433.928C141.766 433.915 145.863 433.799 149.883 433.213C150.293 433.154 150.119 432.53 149.711 432.59C145.609 433.186 141.42 433.282 137.281 433.282C132.626 433.284 127.957 433.094 123.336 432.51C122.924 432.459 122.928 433.106 123.336 433.157Z" fill="white"/>
<path d="M147.276 347.616C146.496 349.528 145.716 351.439 144.936 353.351C144.789 353.712 145.375 353.869 145.52 353.512C146.301 351.6 147.081 349.689 147.861 347.777C148.008 347.417 147.421 347.259 147.276 347.616Z" fill="white"/>
<path d="M90.5776 351.557C91.3274 353.789 92.3542 355.883 93.6688 357.837C93.8852 358.159 94.4111 357.856 94.1925 357.531C92.906 355.618 91.8965 353.582 91.1629 351.396C91.0385 351.028 90.452 351.186 90.5776 351.557Z" fill="white"/>
<path d="M148.652 196.983C148.945 202.39 149.239 207.798 149.533 213.205C149.557 213.646 150.247 213.649 150.223 213.205C149.93 207.798 149.636 202.39 149.342 196.983C149.318 196.542 148.628 196.54 148.652 196.983Z" fill="white"/>
<path d="M77.6111 187.321C78.3068 189.358 79.5219 191.248 80.935 192.865C81.1925 193.16 81.6199 192.729 81.3635 192.437C80.0239 190.904 78.8554 189.09 78.1954 187.161C78.0698 186.792 77.4845 186.95 77.6111 187.321Z" fill="white"/>
<path d="M111.651 123.427C111.651 123.427 112.67 128.986 115.913 129.171C119.156 129.356 118.971 122.315 118.971 122.315C118.971 122.315 118.136 127.874 116.099 127.781C114.059 127.689 112.577 125.465 111.651 123.427Z" fill="#A8425F"/>
<path d="M127.585 123.149C127.585 123.149 128.605 128.708 131.847 128.893C135.09 129.078 134.164 122.223 134.164 122.223C134.164 122.223 133.701 127.689 131.662 127.596C129.624 127.504 128.513 125.187 127.585 123.149Z" fill="#A8425F"/>
<path d="M80.8037 189.764C80.8037 195.655 80.8037 201.546 80.8037 207.437C80.8037 207.88 81.494 207.881 81.494 207.437C81.494 201.545 81.494 195.655 81.494 189.764C81.494 189.321 80.8037 189.321 80.8037 189.764Z" fill="white"/>
<path d="M151.546 198.612C150.713 200.252 149.779 201.847 149.016 203.522C148.834 203.923 149.429 204.274 149.613 203.87C150.375 202.195 151.309 200.601 152.141 198.96C152.342 198.564 151.747 198.215 151.546 198.612Z" fill="white"/>
<path d="M24.6559 193.905L22.7354 192.429L33.3206 177.653L36.309 179.948L24.6559 193.905Z" fill="#C1B5C2"/>
<path d="M26.0141 194.312L22.0117 191.238L21.5814 191.798L25.5837 194.872L26.0141 194.312Z" fill="#D8CAD9"/>
<path d="M37.1537 180.725L32.3247 177.016L32.6482 176.375L37.7174 180.268L37.1537 180.725Z" fill="#D8CAD9"/>
<path d="M43.0995 168.792L42.6851 168.169L49.9204 159.605L51.2145 158.694L43.0995 168.792Z" fill="#D8CAD9"/>
<path d="M44.2313 169.745L41.1357 167.368L41.6843 166.898L44.543 169.094L44.2313 169.745Z" fill="#C1B5C2"/>
<path opacity="0.7" d="M32.4312 187.151L27.415 183.298L39.0552 165.77L46.2051 171.261L32.4312 187.151Z" fill="#D8CAD9"/>
<path opacity="0.75" d="M37.0512 179.756L33.209 176.805L39.6166 167.855L44.1523 171.339L37.0512 179.756Z" fill="#542E54"/>
<path d="M33.4209 187.962L26.3511 182.531L26.8704 181.523L34.2334 187.178L33.4209 187.962Z" fill="#ECDDED"/>
<path d="M34.6738 184.508L32.1538 181.953L34.9724 184.118L34.6738 184.508Z" fill="#542E54"/>
<path d="M37.9784 181.199L34.978 178.277L38.277 180.81L37.9784 181.199Z" fill="#542E54"/>
<path d="M40.9356 177.624L37.8032 174.599L41.2353 177.235L40.9356 177.624Z" fill="#542E54"/>
<path d="M43.9736 174.112L40.627 170.922L44.2722 173.723L43.9736 174.112Z" fill="#542E54"/>
<path d="M36.5167 195.986C36.4572 193.597 37.1097 189.406 37.141 187.746C38.1928 185.238 38.7121 181.159 37.8487 180.514C36.652 179.621 35.9195 183.232 34.488 184.625C34.488 184.625 32.324 186.113 31.6477 188.818L24.209 197.879L36.5167 195.986Z" fill="#C4ECE5"/>
<path d="M26.1022 183.137C29.055 185.836 30.1814 186.408 30.7029 185.975C31.457 185.35 30.5027 184.114 28.1905 181.648C29.7724 182.714 28.8862 182.08 30.6347 183.542C31.1746 183.993 33.0119 185.272 33.4739 184.399C33.9359 183.526 31.7081 180.65 30.1586 178.944C31.8487 180.408 33.3852 181.827 34.4953 182.182C34.8729 182.302 35.3025 182.319 35.4907 181.949C35.6595 181.617 35.6 181.067 35.1261 180.384C34.2367 179.103 34.5754 179.238 31.9169 176.645C34.3287 178.542 35.8997 179.315 36.1583 179.228C36.4202 179.139 36.5673 178.825 36.5608 178.539C36.5543 178.253 36.3996 177.609 36.2546 177.369C34.9681 175.238 33.3603 173.038 31.9169 172.632C30.7808 172.313 28.9414 172.992 26.6876 174.977C24.2109 177.157 23.368 178.501 23.4502 179.872C23.5325 181.244 26.1022 183.137 26.1022 183.137Z" fill="#C4ECE5"/>
<path d="M162.841 59.5099C164.634 59.5099 166.087 58.0567 166.087 56.2639C166.087 54.4712 164.634 53.0179 162.841 53.0179C161.048 53.0179 159.595 54.4712 159.595 56.2639C159.595 58.0567 161.048 59.5099 162.841 59.5099Z" fill="#81D6C8"/>
<path d="M378.159 59.5099C379.952 59.5099 381.405 58.0567 381.405 56.2639C381.405 54.4712 379.952 53.0179 378.159 53.0179C376.366 53.0179 374.913 54.4712 374.913 56.2639C374.913 58.0567 376.366 59.5099 378.159 59.5099Z" fill="#81D6C8"/>
</svg>
